<svg width="91" height="88" viewBox="0 0 91 88" fill="none" xmlns="http://www.w3.org/2000/svg">
<path fill-rule="evenodd" clip-rule="evenodd" d="M44.6011 0.132607C36.4398 2.71465 27.8091 6.76492 20.7873 11.308C18.1542 13.0118 14.5148 16.0299 10.9575 19.4604C7.20552 23.0786 5.08308 25.4298 1.11783 30.3605L0 31.7504L0.0193782 36.3063C0.0345922 39.8981 0.111463 41.4562 0.382272 43.669C1.68539 54.3148 5.03263 63.8964 10.9731 73.9859C12.5581 76.6778 16.6132 82.6448 17.2397 83.2071C17.9267 83.8236 25.6255 85.8823 30.3936 86.7244C40.1722 88.4516 49.3442 88.4255 59.609 86.6415C63.5391 85.9584 68.8019 84.6949 72.198 83.6193C73.3994 83.2388 73.4881 83.1771 74.36 82.118C78.3744 77.2421 83.1194 68.766 86.0187 61.2915C87.7805 56.7498 89.329 50.3175 90.156 44.1054C90.8068 39.2162 91.2129 32.2665 90.8826 31.671C90.1656 30.3793 85.6739 25.2406 82.65 22.2525C77.2228 16.8898 72.6056 13.0358 68.5431 10.4773C62.3633 6.58531 54.5994 2.95557 47.367 0.577232C45.3546 -0.0846863 45.3102 -0.0917901 44.6011 0.132607ZM47.092 1.77304C54.3448 4.15879 62.5845 8.07131 68.8243 12.0919C71.7763 13.994 76.7279 18.1933 81.1948 22.5829C84.1986 25.5346 86.1303 27.6547 88.5611 30.6669L89.8054 32.2088L89.6968 34.605C89.2825 43.7517 87.7896 52.3616 85.439 59.1631C82.9266 66.4321 78.4208 74.8136 73.7947 80.8234L72.7542 82.1751L71.2091 82.6348C53.3818 87.9389 38.0302 88.1187 20.9269 83.2239L18.1519 82.4298L17.0656 80.9506C12.3057 74.47 8.04148 66.631 5.54959 59.7808C2.66517 51.852 1.41939 45.1306 1.25556 36.6152L1.171 32.2137L3.88998 28.9372C5.38528 27.1351 7.40074 24.8069 8.36851 23.7635C11.6879 20.1851 16.8648 15.554 20.0985 13.2701C24.4736 10.1803 31.8585 6.25265 37.6347 3.9435C40.2185 2.91047 44.8839 1.2634 45.2503 1.2549C45.3871 1.25166 46.2158 1.48486 47.092 1.77304ZM42.5992 3.31757C39.0912 4.51075 36.1099 5.72092 32.6701 7.34761C21.3939 12.6803 14.0334 18.532 5.30536 29.1024L2.66726 32.2976L2.55115 33.3366C2.37419 34.9196 2.59967 40.697 2.95328 43.6421C4.1696 53.7738 7.53126 63.318 13.2067 72.7535C14.4538 74.8267 18.4977 80.7752 18.8463 81.0493C19.2081 81.3338 23.0764 82.4618 26.4243 83.259C32.9529 84.8137 38.2791 85.4495 44.7612 85.448C52.9745 85.4458 59.941 84.3984 69.3262 81.7545L71.871 81.0376L73.1888 79.3279C76.7817 74.6675 79.9368 69.1968 82.6278 62.9614C85.9329 55.3034 87.7317 46.8124 88.3288 36.0517C88.5348 32.3399 88.6178 32.7039 87.1382 30.8238C82.1789 24.5215 73.0237 15.9811 67.5819 12.5807C63.2088 9.84795 57.8552 7.11596 53.1318 5.20665C50.1883 4.01686 45.798 2.48299 45.3632 2.49256C45.1643 2.49689 43.9204 2.86816 42.5992 3.31757ZM47.9776 4.58751C54.8813 7.0131 61.3999 10.1386 66.9416 13.6797C72.4669 17.2103 81.4795 25.6004 86.0213 31.4415C86.5496 32.1211 87.0331 32.7604 87.0956 32.8622C87.2594 33.1294 86.9216 38.8315 86.5438 42.1749C85.8864 47.9932 84.5229 54.2743 82.966 58.6563C80.5545 65.444 76.3791 73.146 72.0915 78.7161L71.1276 79.9682L68.7944 80.6164C67.5111 80.9729 66.3382 81.2992 66.188 81.3415C65.7514 81.4646 65.1539 80.129 64.8615 78.3771C64.722 77.5413 64.5205 76.797 64.4135 76.7232C63.796 76.2971 60.2675 74.7937 58.694 74.2865C54.4277 72.9112 50.2464 72.8905 46.7879 74.2276L45.6917 74.6514L43.9853 74.099C39.0893 72.514 34.3856 73.07 28.3272 75.9496L26.5468 76.7959L26.347 78.2111C26.1108 79.8844 25.3315 81.7586 24.918 81.6482C24.7775 81.6107 23.5386 81.2553 22.1649 80.8583L19.6671 80.1366L17.5679 77.1014C12.9542 70.431 9.66314 64.0677 7.37127 57.3861C6.58206 55.0854 5.38336 50.659 4.97418 48.5342C4.1941 44.4841 3.67538 38.5003 3.79389 34.9195L3.8634 32.8173L6.35177 29.8128C11.2063 23.9512 15.2806 19.925 20.2867 16.0421C24.2042 13.0036 32.4528 8.50296 38.3553 6.18331C40.3206 5.41097 45.0828 3.7344 45.3352 3.7259C45.4308 3.72266 46.6199 4.11045 47.9776 4.58751ZM42.0786 12.3231C41.7059 12.3923 41.692 12.624 41.9742 14.0673C42.0345 14.3761 41.8632 14.2558 41.1201 13.4681C40.2492 12.545 40.1578 12.4898 39.6733 12.5925C39.3887 12.6527 39.1567 12.7486 39.1573 12.8054C39.1623 13.1889 39.6331 16.2776 39.6959 16.3382C39.8418 16.4789 40.7575 16.2057 40.7479 16.0242C40.7428 15.9248 40.6821 15.5133 40.6132 15.1098C40.5444 14.7062 40.5306 14.3771 40.5828 14.3782C40.6349 14.3793 41.0243 14.7615 41.4482 15.2276C42.2061 16.0608 42.6364 16.2434 43.1306 15.9413C43.3007 15.8372 43.3082 15.56 43.1692 14.5151C42.8354 12.0068 42.9155 12.1676 42.0786 12.3231ZM44.6011 14.0673V15.9206H46.2025C47.7957 15.9206 47.804 15.9186 47.804 15.5419C47.804 15.1852 47.7459 15.1604 46.8031 15.1172C45.904 15.0758 45.7969 15.0358 45.7509 14.7237C45.7027 14.3961 45.7554 14.3762 46.6718 14.3762C47.6019 14.3762 47.6439 14.3595 47.6439 13.9901C47.6439 13.625 47.5958 13.604 46.7631 13.604C45.9891 13.604 45.8822 13.5667 45.8822 13.2952C45.8822 13.0206 45.9891 12.9863 46.8431 12.9863C47.7613 12.9863 47.804 12.9691 47.804 12.6002V12.2141H46.2025H44.6011V14.0673ZM50.0975 12.7657C49.079 13.2629 48.7449 14.8891 49.4865 15.7391C50.0141 16.3437 51.1721 16.6321 52.1024 16.3905C52.6872 16.2387 52.7663 16.1606 52.8562 15.646C52.9114 15.3299 52.9874 14.9614 53.025 14.8272C53.0778 14.6381 52.8937 14.5481 52.2097 14.4286C51.7238 14.3436 51.2904 14.3087 51.2467 14.3509C51.0433 14.547 51.198 15.0307 51.4874 15.1036C51.6636 15.1481 51.8077 15.2806 51.8077 15.3981C51.8077 15.722 50.7908 15.6698 50.4713 15.3292C50.1455 14.9822 50.138 14.678 50.4383 13.9852C50.6282 13.5469 50.7555 13.4496 51.1394 13.4496C51.3972 13.4496 51.698 13.5538 51.8077 13.6812C51.9832 13.8853 53.0889 14.0247 53.0889 13.8429C53.0889 13.5653 52.6704 12.9928 52.3714 12.8613C51.658 12.5478 50.6322 12.5047 50.0975 12.7657ZM35.0548 13.4814C34.6556 13.6056 34.4831 13.8079 34.1851 14.5015L33.8132 15.3666L33.5844 14.7045C33.3751 14.0993 33.319 14.0511 32.9327 14.143C32.7002 14.1983 32.4478 14.3021 32.3719 14.3736C32.2593 14.4795 33.3152 17.9283 33.4601 17.9283C33.4838 17.9283 33.7298 17.8521 34.0068 17.7589C34.4737 17.6019 34.5044 17.5482 34.4255 17.0253C34.3787 16.715 34.4122 16.3573 34.4996 16.2305C34.6325 16.0381 34.7594 16.0942 35.2659 16.5686C35.8612 17.1261 35.8863 17.1337 36.5537 16.9603C36.9279 16.863 37.2343 16.7414 37.2343 16.69C37.2343 16.6386 36.7699 16.2261 36.2021 15.7733L35.1701 14.9499L35.5615 14.2049C35.7769 13.7951 35.9531 13.4229 35.9531 13.3775C35.9531 13.2632 35.641 13.2993 35.0548 13.4814ZM54.2303 15.12C53.9598 16.103 53.7543 16.9207 53.774 16.9371C53.7935 16.9535 54.4918 17.1457 55.3255 17.3641C56.8873 17.7732 57.0841 17.748 57.0902 17.1386C57.0919 16.9581 56.8256 16.8349 56.1237 16.6911C55.2819 16.5189 55.161 16.4502 55.2028 16.1681C55.2546 15.8183 55.408 15.7994 56.5721 15.9983C57.1999 16.1054 57.2527 16.0886 57.2527 15.781C57.2527 15.4272 57.2226 15.4094 56.1873 15.1541C55.6333 15.0174 55.5363 14.9381 55.6066 14.6788C55.6599 14.482 55.7867 14.394 55.9514 14.4392C56.0945 14.4788 56.5184 14.596 56.8933 14.6999C57.6396 14.9069 57.6481 14.9045 57.7942 14.4451C57.8861 14.156 57.7543 14.0927 56.3085 13.7304L54.7221 13.3328L54.2303 15.12ZM58.7262 16.3453C58.3635 17.1735 58.0456 17.9414 58.02 18.0518C57.9944 18.1622 58.1971 18.3457 58.4705 18.4595L58.9676 18.6666L59.3204 17.9664C59.7459 17.1218 59.9848 17.2437 60.0963 18.3624C60.1645 19.0473 60.2268 19.1486 60.7197 19.3752C61.0208 19.5137 61.3101 19.6271 61.3623 19.6271C61.4779 19.6271 61.3381 18.2586 61.1869 17.9107C61.1047 17.7213 61.1968 17.6385 61.5697 17.5667C61.8821 17.5065 62.1276 17.3303 62.2448 17.0824C62.563 16.4086 62.2078 15.9677 60.8648 15.3692C60.211 15.078 59.6106 14.8395 59.5308 14.8395C59.4511 14.8395 59.089 15.517 58.7262 16.3453ZM30.0725 15.2273L29.5568 15.4384L30.286 17.0308C30.6868 17.9066 31.063 18.6703 31.1218 18.7279C31.1807 18.7856 31.4595 18.7381 31.7417 18.6226L32.2547 18.4126L31.5205 16.8191C31.1168 15.9427 30.7419 15.1785 30.6873 15.1209C30.6328 15.0633 30.3561 15.1112 30.0725 15.2273ZM60.6884 16.0999C61.2072 16.3278 61.2405 16.8481 60.7359 16.8449C60.1957 16.8413 59.976 16.6461 60.08 16.2625C60.1884 15.8631 60.1644 15.8696 60.6884 16.0999ZM27.5454 16.4114C27.3692 16.5062 27.2038 16.6 27.1778 16.6196C27.1517 16.6393 27.3532 17.0197 27.6254 17.465C27.8977 17.9102 28.0944 18.2997 28.0626 18.3304C28.0308 18.361 27.5252 18.1406 26.939 17.8404C25.8574 17.2866 25.807 17.2841 25.0837 17.7508C24.9085 17.8637 25.0482 18.2089 25.7733 19.4547C26.2735 20.314 26.7728 21.017 26.8832 21.017C26.9935 21.017 27.2236 20.9168 27.3947 20.7942C27.6993 20.5759 27.6965 20.5559 27.2651 19.8062C27.023 19.3854 26.8247 18.9982 26.8247 18.946C26.8247 18.8938 27.3252 19.0941 27.9369 19.3911C29.0362 19.925 29.0549 19.9282 29.5373 19.6634C29.8058 19.516 30.008 19.3568 29.9865 19.3097C29.6856 18.6475 28.1448 16.2307 28.0258 16.2342C27.9377 16.2367 27.7215 16.3164 27.5454 16.4114ZM63.7593 17.3491C63.2538 18.1233 62.2173 19.9724 62.2173 20.1003C62.2173 20.1753 62.4295 20.3427 62.6889 20.4722L63.1606 20.7072L64.0502 19.1922C64.5394 18.3588 64.9398 17.6057 64.9398 17.5185C64.9398 17.386 64.2819 17.0016 64.0551 17.0016C64.0173 17.0016 63.8841 17.1579 63.7593 17.3491ZM22.9323 19.2232C22.392 19.7006 22.3406 19.8173 22.3406 20.5687V21.3914L21.8832 20.863C21.43 20.3395 21.4218 20.3372 21.0024 20.6022C20.7695 20.7494 20.5789 20.9308 20.5789 21.0054C20.5789 21.08 21.086 21.7738 21.7056 22.5469L22.8322 23.9526L23.3002 23.619C23.7612 23.2902 23.764 23.2795 23.488 22.8848C23.2028 22.4768 23.1972 21.7892 23.4791 21.7892C23.5646 21.7892 23.9191 21.9293 24.2671 22.1004L24.8999 22.4117L25.4599 22.0618C25.768 21.8694 26.0209 21.6709 26.022 21.6206C26.023 21.5702 25.5016 21.3349 24.8629 21.0975C24.2242 20.8601 23.645 20.6172 23.5755 20.5574C23.506 20.4978 23.513 20.0555 23.5913 19.5747C23.6695 19.0938 23.6863 18.7005 23.6288 18.7005C23.5713 18.7005 23.2579 18.9357 22.9323 19.2232ZM66.6535 20.7307L65.4427 22.1433L65.7918 22.4171C66.2075 22.7433 66.3515 22.6514 67.2976 21.455C67.6195 21.0479 67.9099 20.741 67.943 20.773C67.976 20.8048 67.7416 21.3319 67.4218 21.9443C67.1019 22.5566 66.8795 23.156 66.9274 23.2763C67.1068 23.7268 67.5228 23.6727 68.4257 23.0818C69.8318 22.1614 69.8517 22.156 69.2593 22.8524C67.9533 24.3875 68.0234 24.2567 68.3735 24.5039C68.5446 24.6247 68.7337 24.7235 68.7937 24.7235C68.854 24.7235 69.4528 24.1039 70.1244 23.3466L71.3455 21.9696L70.7105 21.4845L70.0756 20.9994L69.196 21.626C68.7124 21.9705 68.2781 22.2525 68.2311 22.2525C68.1842 22.2525 68.3767 21.8009 68.6589 21.2488L69.1722 20.2453L68.6174 19.788C68.3123 19.5366 68.0182 19.3279 67.9635 19.3245C67.9091 19.321 67.3196 19.9539 66.6535 20.7307ZM42.9596 20.2041C41.4843 20.2306 40.2766 20.3027 40.2758 20.3644C40.2649 21.3569 39.7625 26.8211 39.6756 26.892C39.6101 26.9454 38.9866 27.1446 38.29 27.3344C37.5935 27.5244 36.308 27.9834 35.4334 28.3546L33.8432 29.0295L31.1211 27.0932L28.3991 25.1569L25.8902 27.5388C24.5104 28.8488 22.9214 30.3415 22.3591 30.8558L21.3366 31.7909L23.1999 34.1434C24.2247 35.4373 25.0631 36.5588 25.0631 36.6359C25.0631 36.7128 24.8909 37.0387 24.6806 37.36C24.0303 38.3534 23.1101 40.1833 22.5699 41.5572L22.0537 42.8699L19.4345 43.1456C17.994 43.2971 16.7255 43.4514 16.6153 43.4881C16.4609 43.5399 16.4151 44.6524 16.4151 48.3476C16.4151 50.9834 16.4471 53.14 16.4864 53.14C16.6563 53.14 21.0107 53.7624 21.3092 53.8294C21.5704 53.8879 21.6969 54.139 21.9155 55.0332C22.228 56.3114 23.3727 59.1121 24.0138 60.1672L24.4406 60.8694L23.0872 62.7692L21.7338 64.6689L23.6791 66.5876C24.749 67.6431 25.786 68.6977 25.9833 68.9312L26.3422 69.3559H25.0724C23.8532 69.3559 22.5721 69.6371 23.1648 69.7746C23.3099 69.8083 23.4648 69.969 23.509 70.132C23.5825 70.4029 23.7785 70.4322 25.8076 70.4759C27.5697 70.5139 27.3015 70.5329 24.5026 70.5684C22.5648 70.593 20.8352 70.6728 20.659 70.7459C20.3535 70.8725 20.3552 70.8791 20.6991 70.8895C20.9484 70.8969 21.0594 70.9951 21.0594 71.2079C21.0594 71.5112 21.193 71.5162 30.5481 71.5567L40.0369 71.5977L29.4671 71.6373C23.6538 71.6589 18.7352 71.7187 18.5371 71.7698C18.3388 71.821 18.1767 71.9284 18.1767 72.0085C18.1767 72.0885 18.2536 72.1081 18.3476 72.0521C18.4418 71.996 18.558 72.0961 18.6066 72.2746L18.6945 72.5991H45.3405C71.8795 72.5991 71.9863 72.5979 71.9863 72.2902C71.9863 72.1203 72.0764 71.9803 72.1865 71.979C72.3199 71.9773 72.3066 71.9267 72.1464 71.8269C71.9989 71.735 67.7006 71.6618 61.0162 71.6374L50.1262 71.5977L59.695 71.5567C69.1302 71.5162 69.2638 71.5112 69.2638 71.2079C69.2638 71.0187 69.3717 70.8994 69.544 70.898C69.7836 70.896 69.7894 70.8737 69.5841 70.7459C69.4395 70.6558 66.2184 70.5809 61.4966 70.5577L53.6494 70.5193L60.3756 70.4394L67.1018 70.3598L67.1532 70.01C67.1838 69.8027 67.2816 69.6972 67.3934 69.7511C67.4974 69.8012 67.4423 69.7327 67.2714 69.599C67.0393 69.4175 66.5518 69.3505 65.3496 69.3349C64.4635 69.3233 63.9008 69.2838 64.099 69.2469C64.2973 69.2101 64.4594 69.0887 64.4594 68.9774C64.4594 68.8659 65.4864 67.9215 66.7415 66.8787C67.9965 65.8361 69.1265 64.8921 69.2524 64.781C69.4476 64.6088 69.2771 64.2836 68.0913 62.5672C67.327 61.4605 66.7014 60.4938 66.7014 60.4189C66.7014 60.3442 66.8763 59.9789 67.0901 59.6072C67.6682 58.6021 68.439 56.6465 68.8722 55.0853C69.0831 54.3253 69.3318 53.6583 69.4247 53.6028C69.5176 53.5474 70.5464 53.3459 71.7108 53.1548C72.8753 52.9639 73.9902 52.7707 74.1883 52.7255L74.5486 52.6432V47.9671V43.2911L73.868 43.1972C73.4938 43.1456 72.1785 42.9935 70.9453 42.8591C69.7122 42.7247 68.6639 42.568 68.6158 42.5107C68.5678 42.4534 68.4344 42.1286 68.3194 41.7888C68.0149 40.8892 66.602 38.0465 66.0368 37.197L65.5506 36.4662L67.0296 34.4943C67.8429 33.4098 68.6757 32.3109 68.8802 32.0522L69.2519 31.5819L65.7652 28.2221L62.2785 24.8624L59.5779 26.9446L56.8773 29.0269L56.2784 28.7322C55.3119 28.2567 53.2961 27.5147 52.1499 27.2124L51.087 26.9321L50.6857 23.5499L50.2844 20.1676L47.9632 20.1616C46.6865 20.1583 44.4348 20.1775 42.9596 20.2041ZM49.7279 20.8176C49.7291 20.8848 49.9087 22.3992 50.1271 24.183C50.3454 25.9667 50.5246 27.4357 50.5252 27.4476C50.526 27.4594 50.7823 27.5153 51.0947 27.5718C52.0449 27.7437 54.0539 28.4289 55.4834 29.0688C56.2278 29.402 56.9124 29.6459 57.0048 29.6107C57.0971 29.5756 58.322 28.6671 59.7267 27.5919L62.2807 25.637L65.2918 28.5378C66.9479 30.1331 68.3029 31.5172 68.3029 31.6133C68.3029 31.7095 67.5135 32.8346 66.5488 34.1133L64.7949 36.4387L65.6452 37.801C66.5217 39.2048 67.4146 41.0474 67.8811 42.4143L68.1472 43.1942L70.9876 43.4954L73.828 43.7965L73.8706 47.9784L73.9132 52.1602L71.3334 52.6115L68.7536 53.0628L68.3003 54.7648C67.8628 56.4087 66.8966 58.7885 66.2134 59.905L65.8831 60.4452L67.2672 62.449C68.4103 64.1038 68.6141 64.487 68.4371 64.6484C68.3192 64.7558 67.2906 65.6158 66.1511 66.5594L64.0795 68.2749L62.0674 68.2502C60.9608 68.2366 60.2894 68.1973 60.5758 68.1632C60.9616 68.117 61.0963 68.0234 61.0963 67.8018C61.0963 67.6372 61.1864 67.5016 61.2964 67.5004C61.4298 67.4987 61.4166 67.448 61.2564 67.3482C61.1153 67.2604 58.5704 67.1825 55.0907 67.1598L49.1653 67.1212L54.0715 67.0781L58.9778 67.0349L59.0614 66.6133C59.1074 66.3815 59.1114 66.1391 59.0702 66.075C59.0291 66.0108 57.6484 65.9461 56.0021 65.9313C54.3558 65.9164 53.3105 65.878 53.6793 65.8457C54.0639 65.812 54.3713 65.6995 54.4 65.5818C54.4276 65.4689 55.2259 64.8772 56.174 64.2672C66.3018 57.7501 67.7302 44.5184 59.1945 36.287C56.353 33.5468 52.6911 31.69 48.8595 31.0466L47.804 30.8694L47.7728 29.9199C47.7557 29.3977 47.7262 28.7968 47.7074 28.5845C47.6887 28.3721 47.665 27.4339 47.6551 26.4995C47.6394 25.0523 47.5896 24.7436 47.318 24.4146C47.0225 24.0567 46.9839 24.0479 46.7874 24.2937C46.5991 24.5292 46.556 24.4777 46.4008 23.8304C46.3047 23.4298 46.0677 22.7544 45.8741 22.3297L45.5221 21.5576L45.225 22.1753C45.0615 22.5151 44.8398 23.1927 44.7324 23.6811C44.5245 24.6259 44.3719 24.7802 44.1903 24.2289C44.0801 23.894 44.0723 23.8959 43.6999 24.3447C43.346 24.7711 43.3213 24.9309 43.3196 26.8084C43.3184 27.9126 43.2725 29.2776 43.2172 29.8416L43.1167 30.867L41.7618 31.1265C37.8579 31.8741 34.6013 33.5559 31.7693 36.287C25.9348 41.9135 24.5399 49.9963 28.1811 57.0781C29.884 60.3902 32.3592 62.9372 35.7516 64.8684C36.3895 65.2315 36.8744 65.5863 36.8293 65.6567C36.7841 65.7273 37.0189 65.8122 37.351 65.8456C37.6832 65.8791 36.6938 65.9191 35.1524 65.9347C33.4836 65.9515 32.2526 66.0293 32.1096 66.1268C31.9288 66.2502 31.9188 66.3101 32.0695 66.3689C32.1797 66.412 32.2697 66.5794 32.2697 66.741C32.2697 67.0219 32.4736 67.0367 36.954 67.0801L41.6383 67.1255L36.7538 67.0999C34.0674 67.0858 31.7612 67.0693 31.6291 67.0633C30.9163 67.0304 28.9654 67.2378 28.8345 67.3603C28.7391 67.4495 28.754 67.5027 28.8746 67.5027C28.9803 67.5027 29.0668 67.637 29.0668 67.8014C29.0668 68.0085 29.2016 68.1196 29.5072 68.1643C29.7493 68.1996 29.1177 68.239 28.1033 68.2517L26.2592 68.2749L24.3783 66.4562L22.4972 64.6375L23.8373 62.7883L25.1774 60.9391L24.4906 59.7036C23.5985 58.0993 22.9509 56.4942 22.4868 54.7381L22.1133 53.3247L20.2652 53.0594C19.2486 52.9133 18.1287 52.7482 17.7764 52.6924L17.1358 52.591L17.0932 48.3171L17.0507 44.0432L17.5736 43.9633C17.8612 43.9193 18.8894 43.8095 19.8583 43.7193C22.7811 43.447 22.5629 43.5334 22.8889 42.5206C23.3332 41.1408 24.0612 39.6028 25.0094 38.0403C25.5227 37.1945 25.8292 36.5309 25.7581 36.4187C25.6921 36.3145 24.8603 35.2449 23.9099 34.042L22.1817 31.8548L25.2914 28.9716C27.0018 27.3859 28.4497 26.085 28.509 26.0809C28.5682 26.0767 29.7616 26.8816 31.1609 27.8694C32.5601 28.8573 33.7684 29.6655 33.8459 29.6655C33.9236 29.6655 34.5915 29.394 35.3305 29.0621C36.4206 28.5726 37.9426 28.0617 40.237 27.4151C40.3493 27.3834 40.4412 27.1022 40.4464 26.7746C40.4771 24.7898 40.8837 20.9783 41.077 20.863C41.3517 20.6993 49.7251 20.6555 49.7279 20.8176ZM18.1634 23.1893C17.5983 23.7987 17.1278 24.3413 17.1178 24.3947C17.1081 24.4482 17.7046 25.0452 18.4437 25.7216L19.7873 26.9514L20.9353 25.8444C22.0736 24.7467 22.0805 24.7348 21.782 24.4168L21.4811 24.096L20.7391 24.8007C20.0261 25.4779 19.9867 25.4943 19.73 25.2208C19.4775 24.9516 19.4975 24.9034 20.0985 24.3374C20.6992 23.7717 20.7196 23.7232 20.4673 23.4543C20.2108 23.181 20.1736 23.1954 19.5095 23.8238C18.9696 24.335 18.7763 24.4369 18.6251 24.2911C18.474 24.1453 18.5862 23.9526 19.1394 23.4091L19.8471 22.7137L19.5191 22.3974L19.1911 22.0811L18.1634 23.1893ZM71.2656 24.5952C70.3848 24.9319 69.6081 25.2602 69.5394 25.3251C69.4708 25.3898 69.566 25.6282 69.7509 25.8549C70.0384 26.2075 70.1361 26.2418 70.4258 26.0923C70.7182 25.9414 70.8265 25.9843 71.2179 26.4069C71.5999 26.8191 71.6431 26.9473 71.4922 27.2192C71.3417 27.4903 71.3792 27.6058 71.7249 27.9392C71.9514 28.1577 72.1644 28.3054 72.198 28.2674C72.2318 28.2294 72.6719 27.4513 73.1762 26.5383L74.0929 24.8783L73.7202 24.4234C73.5152 24.1731 73.2394 23.9717 73.1073 23.9757C72.9752 23.9799 72.1464 24.2585 71.2656 24.5952ZM72.5117 25.6282C72.3549 25.894 72.1813 26.1119 72.1259 26.1125C71.9909 26.1138 71.6038 25.6566 71.6831 25.5896C71.8314 25.4644 72.711 25.0634 72.7519 25.1024C72.7768 25.1258 72.6687 25.3624 72.5117 25.6282ZM14.9149 26.845L13.8491 28.1943L14.2112 28.4631C14.5633 28.7244 14.5845 28.7191 14.9738 28.2746L15.3742 27.8175L16.5415 28.674L17.7088 29.5304L18.0175 29.1733C18.1873 28.9769 18.3271 28.7466 18.3281 28.6617C18.3292 28.5767 17.9532 28.2441 17.4926 27.9224C15.9002 26.8101 16.0162 26.9757 16.4411 26.4216C16.8083 25.9425 16.8094 25.9298 16.5043 25.7147C16.3336 25.5942 16.1457 25.4957 16.0873 25.4957C16.0287 25.4957 15.5012 26.103 14.9149 26.845ZM74.1111 28.0155C73.2981 28.5407 72.6586 29.04 72.6901 29.125C72.7218 29.2099 73.103 29.7762 73.5373 30.3835L74.327 31.4876L74.7009 31.2156L75.0749 30.9436L74.5514 30.2099C74.2529 29.7915 74.0949 29.4339 74.184 29.3778C75.9045 28.2935 76.4704 27.9191 76.4704 27.8659C76.4704 27.6757 75.9269 27.0416 75.7714 27.0503C75.6714 27.0558 74.9243 27.4903 74.1111 28.0155ZM44.3868 28.9319C44.3424 29.0382 44.3061 28.9512 44.3061 28.7389C44.3061 28.5265 44.3424 28.4397 44.3868 28.5458C44.4313 28.6521 44.4313 28.8258 44.3868 28.9319ZM12.8307 29.8306C12.671 30.0913 12.5653 30.3268 12.5961 30.354C12.6379 30.3912 14.8988 31.7161 15.8077 32.2363C15.9401 32.312 16.4756 31.3711 16.3623 31.2619C16.2864 31.1887 13.1936 29.3566 13.1459 29.3566C13.1323 29.3566 12.9904 29.5699 12.8307 29.8306ZM43.1597 32.1189C43.1597 32.7172 43.1572 32.7195 42.399 32.8256C41.238 32.9879 38.9286 33.7732 37.4873 34.4959C32.6933 36.8992 29.3791 41.2831 28.4247 46.4834C28.1458 48.0031 28.2159 50.9857 28.569 52.6197C29.4252 56.5813 32.0964 60.4994 35.4517 62.7151C36.6773 63.5244 36.7385 63.5925 36.746 64.1563L36.7538 64.748L36.1533 64.4008C32.815 62.4709 30.401 60.0038 28.7625 56.8474C26.5725 52.6288 26.2347 48.0045 27.7896 43.5289C29.3765 38.9611 32.9239 35.1744 37.5932 33.0645C39.0135 32.4225 41.6284 31.6797 42.9596 31.5398C43.0891 31.5262 43.1597 31.7305 43.1597 32.1189ZM50.3664 32.013C59.3937 34.2818 65.4145 43.0543 63.9076 51.7437C63.039 56.754 60.2416 60.9321 55.8835 63.7285C55.1636 64.1905 54.5286 64.5684 54.4724 64.5684C54.416 64.5684 54.3701 64.3648 54.3701 64.1159C54.3701 63.7248 54.5754 63.5146 55.8812 62.5681C59.1328 60.2112 61.3325 57.0848 62.4061 53.2944C62.7307 52.1477 62.7778 51.6301 62.7778 49.2018C62.7778 46.781 62.731 46.2624 62.4154 45.1865C61.012 40.4031 58.019 36.7475 53.6918 34.5314C52.1789 33.7564 49.8776 32.9763 48.6448 32.8207L47.804 32.7144V32.103V31.4916L48.4846 31.6014C48.8589 31.6618 49.7058 31.8469 50.3664 32.013ZM76.7625 31.7356C75.734 31.8287 74.8486 31.9479 74.7946 32.0008C74.5789 32.212 75.0842 32.9087 75.453 32.9087C75.9482 32.9087 76.431 33.9118 76.1487 34.3541C76.0105 34.5706 76.0125 34.7507 76.1573 35.0877C76.2629 35.3332 76.3945 35.5341 76.4497 35.534C76.5052 35.534 77.1722 34.8881 77.9322 34.0988L79.3138 32.6636L79.0094 32.0911C78.8419 31.7764 78.6885 31.5294 78.6686 31.5425C78.6487 31.5555 77.791 31.6425 76.7625 31.7356ZM77.5389 33.0245C77.0991 33.4437 77.09 33.4452 76.8548 33.1404C76.6358 32.8567 76.6463 32.8233 76.9838 32.7311C77.1859 32.6758 77.4938 32.6238 77.6678 32.6153C77.9487 32.6015 77.9342 32.6479 77.5389 33.0245ZM14.1731 33.5264C13.9668 33.9511 13.7844 34.2986 13.7679 34.2986C13.7512 34.2986 13.1918 34.0554 12.5245 33.7581C11.8573 33.4608 11.2433 33.2176 11.1602 33.2176C11.0071 33.2176 10.5547 34.1182 10.6682 34.1965C11.1101 34.5009 14.0909 35.675 14.1865 35.5823C14.2576 35.5133 14.5696 34.9195 14.8796 34.2626C15.4184 33.122 15.4299 33.0614 15.1392 32.9113C14.6513 32.6596 14.5685 32.7123 14.1731 33.5264ZM41.3309 33.9116C40.8198 34.2084 40.1603 34.6555 39.8652 34.9054C39.3317 35.357 39.3252 35.3582 38.6819 35.1145C38.3262 34.9799 38.035 34.8259 38.035 34.7724C38.035 34.6515 38.6868 34.3947 40.4372 33.8261C42.2399 33.2404 42.4517 33.2608 41.3309 33.9116ZM49.3696 33.9207C50.2493 34.3002 51.6476 35.1988 51.6476 35.3848C51.6476 35.4988 50.1926 35.9673 49.6297 36.0345C49.3743 36.0651 49.1147 35.8239 48.5487 35.0307C47.7143 33.8611 47.5742 33.2858 48.1643 33.4537C48.3626 33.5101 48.9049 33.7203 49.3696 33.9207ZM43.1597 34.3048C43.1597 34.9647 42.6321 36.1519 42.3388 36.1519C42.0096 36.1519 40.1969 35.6645 40.0633 35.54C39.9028 35.3904 40.7106 34.7755 41.8954 34.1457C43.0428 33.5359 43.1597 33.5505 43.1597 34.3048ZM51.1961 33.9728C51.6799 34.1334 52.3173 34.3851 52.6126 34.5323L53.1493 34.7999L52.702 35.026C52.2843 35.237 52.2265 35.227 51.8309 34.8741C51.5979 34.6662 51.1204 34.3127 50.7696 34.0886C50.0097 33.6029 50.049 33.5922 51.1961 33.9728ZM38.1058 35.3916L38.8577 35.7124L38.4466 36.2024C38.0752 36.645 36.7687 38.4921 36.3443 39.1747C36.1837 39.4329 36.0955 39.4292 34.6255 39.1016C33.7732 38.9117 33.0349 38.6925 32.9849 38.6144C32.8525 38.4078 34.8164 36.6669 36.1498 35.8092C36.7812 35.403 37.3104 35.0708 37.3257 35.0708C37.3411 35.0708 37.6921 35.2152 38.1058 35.3916ZM48.4254 35.6886L48.7854 36.3063H48.3935C48.0039 36.3063 47.8114 35.99 47.8063 35.3411C47.8026 34.8972 48.0426 35.0321 48.4254 35.6886ZM54.9833 35.8039C55.4828 36.1224 56.4576 36.9032 57.1494 37.539L58.4075 38.695L57.4697 38.9657C55.5143 39.5305 55.5994 39.548 54.9287 38.444C54.6013 37.9054 53.9783 37.034 53.5442 36.5077L52.7548 35.551L53.2021 35.3167C53.7354 35.0373 53.8148 35.0589 54.9833 35.8039ZM78.5523 35.7536C76.8886 36.2482 76.8713 36.2583 76.923 36.7035C76.9517 36.9509 77.0056 37.1828 77.0428 37.2187C77.0801 37.2546 77.5239 37.173 78.0291 37.0373C78.5344 36.9017 78.9687 36.8107 78.994 36.8353C79.0195 36.8598 78.7099 37.2668 78.3063 37.7395C77.6451 38.514 77.583 38.6541 77.6798 39.1517C77.7389 39.4555 77.8281 39.7039 77.8779 39.7039C78.0415 39.7039 81.5951 38.6135 81.5951 38.5634C81.5951 38.5365 81.5179 38.301 81.4236 38.0402L81.2523 37.5659L80.3564 37.8632C79.8638 38.0266 79.4288 38.1298 79.3901 38.0922C79.3511 38.0549 79.6513 37.6312 80.0569 37.1511C80.4626 36.6709 80.7944 36.2194 80.7944 36.1477C80.7944 35.8839 80.4781 35.2257 80.358 35.2395C80.2898 35.2473 79.4772 35.4787 78.5523 35.7536ZM52.9984 36.6367C54.0552 37.7701 55.0646 39.4309 54.7877 39.5802C54.5473 39.71 51.7646 40.1657 51.2071 40.1666C50.9914 40.1669 50.8468 40.0732 50.8468 39.9328C50.8468 39.8039 50.5899 39.0914 50.2759 38.3498C49.9618 37.6081 49.6915 36.9086 49.6753 36.7954C49.6497 36.617 51.4611 35.9093 52.0731 35.8585C52.1751 35.85 52.5915 36.2002 52.9984 36.6367ZM10.2336 36.2904C9.73681 36.5826 9.20848 37.5514 9.20848 38.1704C9.20848 39.0541 10.3635 40.0012 11.4505 40.0088C12.5277 40.0164 13.5341 38.6533 13.3083 37.4924C13.1896 36.8825 12.8736 36.5667 12.0505 36.235C11.2752 35.9227 10.8362 35.936 10.2336 36.2904ZM40.8704 36.3258L42.1844 36.6583L41.9327 37.216C41.7943 37.5225 41.4912 38.2947 41.2593 38.9318C41.0274 39.5688 40.8246 40.1141 40.8089 40.1435C40.7707 40.2147 37.4314 39.7072 37.0554 39.573C36.7865 39.4771 36.8153 39.3798 37.3834 38.4652C37.9895 37.4892 39.236 35.9996 39.4499 35.9953C39.5085 35.9942 40.1477 36.1429 40.8704 36.3258ZM42.9996 38.5457V40.3217H42.2884C41.8971 40.3217 41.5317 40.2506 41.4759 40.1639C41.2846 39.8652 42.5264 36.7696 42.8374 36.7696C42.9375 36.7696 42.9996 37.4499 42.9996 38.5457ZM49.4809 37.6238C49.9476 38.6413 50.4514 40.1396 50.355 40.2225C50.3172 40.255 49.7639 40.3294 49.1252 40.3881L47.9642 40.4948V38.6323V36.7696H48.5268C49.0549 36.7696 49.1131 36.8217 49.4809 37.6238ZM12.1867 37.5542C12.5323 37.8309 12.4574 38.4323 12.0447 38.693C11.2747 39.1795 9.92209 38.3858 10.2248 37.6252C10.4336 37.1006 11.5687 37.0595 12.1867 37.5542ZM34.284 39.4931C35.2827 39.7345 35.9475 39.9702 35.9174 40.0723C35.854 40.2868 34.622 43.9397 34.5989 43.9814C34.5438 44.0812 30.0276 43.0324 30.0276 42.9199C30.0276 42.3955 32.1986 39.0862 32.5428 39.0862C32.5742 39.0862 33.3576 39.2694 34.284 39.4931ZM60.2412 41.2698C61.2723 43.0288 61.3136 42.9411 59.2091 43.4585C57.311 43.925 56.9324 43.9204 56.9324 43.4302C56.9324 43.2659 56.6763 42.4219 56.3633 41.5547C56.0503 40.6876 55.8168 39.956 55.8447 39.9293C55.8724 39.9024 56.5069 39.71 57.2546 39.5016L58.614 39.1226L59.0944 39.6278C59.3587 39.9058 59.8747 40.6446 60.2412 41.2698ZM39.0534 40.4057C39.8338 40.5197 40.5035 40.6431 40.5418 40.68C40.5801 40.7169 40.4641 41.4441 40.2841 42.296C40.1041 43.148 39.9568 44.0253 39.9568 44.2455C39.9568 44.5658 39.8794 44.6459 39.5705 44.6459C38.9 44.6459 35.398 44.1561 35.2741 44.045C35.1452 43.9292 35.5844 42.319 36.1355 40.888L36.4826 39.9873L37.0586 40.093C37.3754 40.1512 38.2732 40.2919 39.0534 40.4057ZM55.6184 40.9226C56.1003 42.1213 56.6272 43.9107 56.5268 44.0076C56.4068 44.1232 53.097 44.6303 52.4083 44.6387C51.8798 44.645 51.8077 44.6016 51.8077 44.2768C51.8077 44.0739 51.6636 43.2322 51.4874 42.4066C51.3112 41.581 51.1671 40.8505 51.1671 40.7832C51.1671 40.716 51.5814 40.6139 52.088 40.5563C52.5945 40.4988 53.4412 40.3601 53.9697 40.2482C54.4982 40.1361 55.003 40.0374 55.0915 40.0286C55.1801 40.0199 55.4171 40.4222 55.6184 40.9226ZM79.387 40.629C78.1944 41.151 77.9489 42.3678 78.7556 43.7579C79.1074 44.3639 79.2043 44.3956 80.2132 44.2348L80.8333 44.1361L80.7409 43.3836C80.6264 42.4511 80.5558 42.3377 80.1536 42.4392C79.9466 42.4914 79.8335 42.6498 79.8335 42.888C79.8335 43.3033 79.4416 43.3925 79.2901 43.0117C79.0957 42.5232 79.2001 42.0332 79.5489 41.7977C79.9708 41.5126 80.9707 41.4801 81.2428 41.7425C81.4707 41.9623 81.4994 42.736 81.2844 42.8642C81.0666 42.9941 81.4175 43.8738 81.6872 43.8738C82.139 43.8738 82.4452 43.1405 82.3427 42.305C82.2231 41.3308 81.8912 40.8241 81.1874 40.5404C80.4781 40.2547 80.2126 40.2676 79.387 40.629ZM42.9235 42.8467C42.8601 43.9636 42.7941 44.8921 42.777 44.9099C42.7598 44.9276 42.2264 44.9003 41.5914 44.8489C40.5 44.7607 40.4372 44.735 40.4372 44.3775C40.4372 44.0053 41.0436 40.9637 41.1515 40.7946C41.1821 40.7469 41.6191 40.732 42.1229 40.7618L43.039 40.8157L42.9235 42.8467ZM50.9003 41.9396C51.0451 42.5745 51.2089 43.4673 51.2645 43.9233L51.3655 44.7525L50.3621 44.8537C49.81 44.9093 49.0809 44.9548 48.7414 44.9548H48.1243L48.1233 44.2212C48.1229 43.8177 48.0764 42.919 48.0204 42.2242L47.9184 40.9608L48.5418 40.8988C48.8847 40.8648 49.4965 40.8253 49.9013 40.8109L50.6373 40.785L50.9003 41.9396ZM8.71731 41.1836C8.54371 41.3853 8.04501 43.7195 8.15182 43.8304C8.20579 43.8864 11.4235 44.3371 11.7697 44.3371C12.0301 44.3371 12.0911 44.2347 12.0911 43.7984C12.0911 43.2894 12.0559 43.2541 11.4505 43.1609L10.81 43.062V42.3096C10.81 41.3502 10.4318 40.9394 9.54831 40.9394C9.17757 40.9394 8.8427 41.0378 8.71731 41.1836ZM9.97975 42.5238C10.0187 42.8484 9.96277 42.9465 9.73953 42.9448C9.24387 42.9408 9.07604 42.7479 9.22786 42.3566C9.41907 41.8636 9.91393 41.9736 9.97975 42.5238ZM61.7067 44.5301C62.064 45.7179 62.4375 47.5739 62.3384 47.6694C62.2453 47.7591 57.8203 48.4868 57.7538 48.4233C57.7211 48.3921 57.6368 47.8247 57.5664 47.1626C57.4961 46.5004 57.3906 45.6112 57.3318 45.1865L57.225 44.4143L59.2008 43.9327C60.2874 43.6679 61.2199 43.4421 61.2731 43.4308C61.3264 43.4195 61.5214 43.9142 61.7067 44.5301ZM32.2697 44.0064L34.4317 44.4432L34.3968 44.9693C34.2989 46.4416 34.0621 48.3742 33.9686 48.4644C33.8587 48.5705 28.9471 47.8253 28.7961 47.6797C28.5343 47.427 29.5845 43.5632 29.9139 43.5673C30.0206 43.5686 31.0806 43.7663 32.2697 44.0064ZM37.3144 44.8791C38.1952 45.0047 39.1064 45.1079 39.3393 45.1083L39.7629 45.1093L39.6785 47.0783C39.6322 48.1612 39.5739 49.0704 39.5491 49.0984C39.5021 49.1515 36.3749 48.8794 35.202 48.7202L34.5308 48.629L34.6095 47.8343C34.6529 47.3972 34.764 46.4668 34.8566 45.7667C35.0138 44.578 35.0478 44.4988 35.3689 44.5721C35.5582 44.6154 36.4335 44.7536 37.3144 44.8791ZM56.9122 45.7656C57.0075 46.4664 57.1051 47.3863 57.1291 47.8099L57.1726 48.5801L55.7313 48.7509C54.9386 48.8448 53.8035 48.9693 53.209 49.0275L52.128 49.1333L52.1266 47.9321C52.1259 47.2714 52.0809 46.375 52.0266 45.94L51.9281 45.1491L53.1091 45.0399C53.7586 44.9798 54.7584 44.8401 55.3309 44.7295C55.9035 44.6189 56.4545 44.5201 56.5556 44.5099C56.6682 44.4986 56.8062 44.9843 56.9122 45.7656ZM42.0964 45.3619L42.8394 45.4601V47.3696V49.2791H41.7315C40.1161 49.2791 40.1168 49.2795 40.1184 47.9884C40.119 47.3816 40.1651 46.5203 40.2207 46.0745C40.3192 45.2844 40.3349 45.2637 40.8376 45.2637C41.1212 45.2637 41.6878 45.3079 42.0964 45.3619ZM51.5438 46.0745C51.5993 46.5203 51.6455 47.3796 51.6461 47.9839L51.6476 49.0826L50.9045 49.1808C50.4959 49.2349 49.7032 49.2791 49.1428 49.2791H48.1243V47.3557V45.4322L49.2053 45.3783C49.7998 45.3485 50.5465 45.3106 50.8646 45.294L51.4427 45.2637L51.5438 46.0745ZM46.9616 48.391C46.9304 48.922 46.9048 48.4876 46.9048 47.4258C46.9048 46.3641 46.9304 45.9298 46.9616 46.4606C46.993 46.9915 46.993 47.8602 46.9616 48.391ZM31.7244 48.6937L33.9815 49.0408L34.1708 51.2063C34.2749 52.3972 34.3763 53.5083 34.396 53.6754C34.4275 53.9438 34.2073 54.0258 32.5099 54.378C31.453 54.5973 30.4026 54.8237 30.1758 54.8811C29.7913 54.9784 29.7455 54.9309 29.5004 54.1786C29.0024 52.6495 28.7465 51.1082 28.7465 49.637C28.7465 48.1829 28.7516 48.1632 29.1068 48.2544C29.3051 48.3052 30.4829 48.5029 31.7244 48.6937ZM62.3774 49.5595C62.3774 50.3084 62.302 51.3335 62.2099 51.8375C61.9446 53.2883 61.3823 55.011 61.1911 54.959C61.0948 54.9329 60.164 54.7103 59.1224 54.4646C57.3746 54.0521 57.2356 53.9928 57.3198 53.6947C57.3699 53.517 57.496 52.3822 57.5998 51.1729L57.7886 48.9742L58.3614 48.8772C58.6764 48.8239 59.5829 48.6573 60.3756 48.507C62.5714 48.0908 62.3774 47.9889 62.3774 49.5595ZM37.6347 49.4454C38.6916 49.543 39.5644 49.6324 39.5742 49.644C39.584 49.6556 39.6376 50.4678 39.6932 51.4488L39.7944 53.2322L37.4333 53.551C36.1347 53.7264 35.0518 53.8538 35.0268 53.8342C34.9357 53.763 34.6926 51.9463 34.5846 50.5305L34.474 49.0794L35.0934 49.1736C35.4342 49.2255 36.5777 49.3478 37.6347 49.4454ZM57.1712 50.5532C57.0605 52.0517 56.8278 53.7557 56.7197 53.86C56.6848 53.8936 56.0518 53.82 55.313 53.6961C54.5741 53.5724 53.517 53.4222 52.9635 53.3622L51.9573 53.2534L52.0644 51.4593C52.1232 50.4726 52.1813 49.6519 52.1937 49.6357C52.2342 49.5819 56.0409 49.1628 56.6642 49.1435L57.2767 49.1246L57.1712 50.5532ZM42.6793 51.3578C42.6793 53.172 42.7123 53.1338 41.1406 53.1378L40.3227 53.14L40.2198 52.1907C40.1632 51.6687 40.1168 50.8868 40.1166 50.4532L40.1161 49.6652L41.3978 49.7155L42.6793 49.7658V51.3578ZM51.5869 51.317C51.527 52.268 51.449 53.0742 51.4136 53.1083C51.378 53.1425 50.6596 53.1205 49.8167 53.0597L48.2845 52.9488V51.3516V49.7544L49.6857 49.703C50.4565 49.6746 51.224 49.6372 51.3913 49.6197C51.6799 49.5896 51.69 49.6775 51.5869 51.317ZM46.9612 52.252C46.9288 52.6978 46.9024 52.3331 46.9024 51.4412C46.9024 50.5493 46.9288 50.1845 46.9612 50.6304C46.9935 51.0762 46.9935 51.8061 46.9612 52.252ZM51.2634 53.6447C51.3197 53.6991 51.3053 54.0768 51.2315 54.4842C51.0971 55.2238 51.097 55.2241 51.0435 54.6638L50.9898 54.1028L49.327 53.853C46.8443 53.4802 42.285 53.5621 40.7175 54.0078C40.5373 54.0589 40.4372 54.0036 40.4372 53.853C40.4372 53.6784 40.6714 53.6021 41.3581 53.5533C42.7522 53.4543 51.1463 53.5316 51.2634 53.6447ZM40.0141 54.3369C40.0687 54.6555 40.1142 55.5801 40.1152 56.3918L40.1169 57.8676L38.3238 58.1435C36.5921 58.4097 36.5234 58.4094 36.3173 58.1376C35.9597 57.6661 34.9722 54.4048 35.1746 54.3638C35.801 54.2365 39.0505 53.7837 39.4153 53.7727C39.8721 53.759 39.9235 53.8075 40.0141 54.3369ZM55.2342 54.1557C55.9296 54.2731 56.5359 54.4048 56.5814 54.4487C56.6964 54.5597 56.0679 56.7648 55.6618 57.6749C55.3555 58.3618 55.2891 58.4185 54.8885 58.3374C54.6473 58.2888 53.6712 58.1268 52.7189 57.9774C51.1101 57.7252 50.9948 57.6838 51.0875 57.3921C51.1423 57.2195 51.343 56.3246 51.5332 55.4036L51.8793 53.7292L52.9244 53.8359C53.4993 53.8946 54.5387 54.0385 55.2342 54.1557ZM34.8921 55.6195C35.0521 56.2189 35.351 57.1223 35.5563 57.6272L35.9292 58.5451L35.5008 58.6438C35.2651 58.698 34.5384 58.8718 33.8856 59.0299C33.233 59.1881 32.619 59.3175 32.5215 59.3175C32.3208 59.3175 30.8731 57.2741 30.3476 56.249C30.1574 55.8779 30.0616 55.5188 30.1348 55.4511C30.2954 55.3027 33.6244 54.5566 34.1961 54.541C34.5657 54.5309 34.6263 54.6248 34.8921 55.6195ZM59.1393 54.9375C60.0835 55.1616 60.9159 55.3966 60.9891 55.4596C61.184 55.6275 60.0137 57.6696 58.8337 59.22C58.7776 59.2939 58.3808 59.2457 57.9521 59.1127C57.5234 58.9799 56.8807 58.7989 56.5237 58.7106L55.8748 58.5499L56.4811 56.8102C56.8147 55.8533 57.0887 54.9488 57.09 54.8002C57.0932 54.4538 57.1054 54.4546 59.1393 54.9375ZM50.212 58.1801C50.29 58.2553 48.4304 58.3136 45.9628 58.3136C43.5495 58.3136 41.6252 58.2652 41.6867 58.206C41.965 57.9377 49.9354 57.9137 50.212 58.1801ZM40.6163 58.4512L40.2346 58.6553L40.6967 58.8106C41.0552 58.9311 41.2304 59.1513 41.4787 59.7938C41.6545 60.2491 41.8187 60.6645 41.8433 60.717C41.868 60.7695 41.0415 60.8997 40.0068 61.0063L38.1252 61.2001L37.7999 60.8061C37.3349 60.2429 36.6718 59.0361 36.7737 58.938C36.8704 58.8448 40.1796 58.2653 40.6775 58.2543C40.9648 58.2482 40.9585 58.2684 40.6163 58.4512ZM53.3008 58.5356C54.254 58.695 55.0582 58.8491 55.088 58.8783C55.1676 58.9564 53.9396 60.9397 53.6968 61.1252C53.5536 61.2345 52.9427 61.2127 51.7276 61.0551C50.7587 60.9294 49.949 60.8123 49.9284 60.795C49.8371 60.7187 50.7323 58.6997 50.8574 58.6997C50.9341 58.6997 50.9554 58.5955 50.9048 58.4681C50.7834 58.1631 51.1285 58.1728 53.3008 58.5356ZM42.6793 59.721V60.3986H43.3199H43.9605V59.7036C43.9605 59.3214 44.0325 59.0086 44.1206 59.0086C44.2087 59.0086 44.2808 59.3214 44.2808 59.7036V60.3986H45.642H47.0033V59.7036C47.0033 59.3214 47.0753 59.0086 47.1634 59.0086C47.2515 59.0086 47.3236 59.3214 47.3236 59.7036V60.3986H48.0442H48.7649V59.7207C48.7649 59.0648 48.7835 59.0397 49.3418 58.9387C49.659 58.8812 49.9577 58.8719 50.0056 58.918C50.1145 59.0231 49.6267 60.2733 49.3623 60.5664C49.2015 60.7445 48.542 60.776 45.778 60.7375L42.3909 60.6903L42.0546 59.9366C41.6182 58.9581 41.6276 58.8948 42.1989 58.9757C42.6489 59.0393 42.6793 59.0865 42.6793 59.721ZM36.2734 59.1547C36.2734 59.2352 36.5256 59.7159 36.8339 60.2233C37.1422 60.7304 37.3944 61.1778 37.3944 61.2174C37.3944 61.2568 37.2562 61.3239 37.0874 61.3666C36.8437 61.428 36.7807 61.5828 36.7822 62.1182C36.783 62.489 36.7771 62.8489 36.7689 62.918C36.7444 63.1236 34.9472 61.8402 33.8662 60.8452C33.2902 60.315 32.9233 59.8648 33.0061 59.7899C33.1396 59.6691 35.6187 59.0472 36.0732 59.0205C36.1834 59.0139 36.2734 59.0744 36.2734 59.1547ZM57.0263 59.3413C57.6793 59.5243 58.2136 59.7372 58.2136 59.8146C58.2136 60.1513 54.9343 62.8695 54.5281 62.8695C54.4581 62.8695 54.3749 62.5046 54.343 62.0588C54.2932 61.3627 54.3587 61.1295 54.8057 60.4112C55.092 59.9511 55.3683 59.4472 55.4195 59.2915C55.5366 58.936 55.5856 58.9376 57.0263 59.3413ZM44.9214 65.739C46.1985 65.7929 47.6399 65.7708 48.1243 65.6902C49.1704 65.5158 51.7983 65.617 51.4679 65.8187C51.199 65.983 39.9421 66.0054 39.5295 65.8425C39.1256 65.6829 40.5649 65.5146 41.7184 65.5863C42.2029 65.6164 43.6442 65.6851 44.9214 65.739ZM31.9895 68.2295C31.7912 68.2662 31.4671 68.2662 31.2688 68.2295C31.0705 68.1925 31.2328 68.1624 31.6291 68.1624C32.0255 68.1624 32.1877 68.1925 31.9895 68.2295ZM51.1271 68.2362C47.8902 68.2596 42.5933 68.2596 39.3562 68.2362C36.1193 68.2128 38.7677 68.1938 45.2417 68.1938C51.7156 68.1938 54.3641 68.2128 51.1271 68.2362ZM58.8973 68.2217C58.7889 68.264 58.5727 68.2667 58.4168 68.2274C58.261 68.1882 58.3497 68.1536 58.614 68.1505C58.8782 68.1474 59.0057 68.1794 58.8973 68.2217ZM28.3881 69.3076C28.235 69.3462 27.9467 69.3476 27.7475 69.3107C27.5482 69.2738 27.6735 69.2421 28.0258 69.2404C28.3781 69.2387 28.5412 69.269 28.3881 69.3076ZM32.8703 69.3161C32.2758 69.3457 31.3027 69.3457 30.7083 69.3161C30.1138 69.2863 30.6002 69.262 31.7893 69.262C32.9784 69.262 33.4647 69.2863 32.8703 69.3161ZM49.9375 69.3172C47.2794 69.3409 42.8833 69.3409 40.1685 69.3173C37.4537 69.2935 39.6285 69.2741 45.0014 69.2741C50.3744 69.2741 52.5956 69.2934 49.9375 69.3172ZM59.695 69.3162C59.0563 69.3454 58.0115 69.3454 57.3728 69.3162C56.7342 69.2869 57.2567 69.2628 58.5339 69.2628C59.8111 69.2628 60.3336 69.2869 59.695 69.3162ZM62.5776 69.3037C62.4676 69.3467 62.2874 69.3467 62.1773 69.3037C62.0672 69.2609 62.1572 69.2259 62.3774 69.2259C62.5976 69.2259 62.6878 69.2609 62.5776 69.3037ZM34.2315 70.5523C33.1524 70.5791 31.387 70.5791 30.3079 70.5523C29.2288 70.5256 30.1117 70.5037 32.2697 70.5037C34.4277 70.5037 35.3106 70.5256 34.2315 70.5523ZM48.4955 70.5527C46.6297 70.5774 43.5308 70.5774 41.6092 70.5527C39.6874 70.5281 41.2139 70.5079 45.0014 70.5077C48.7889 70.5077 50.3612 70.5279 48.4955 70.5527ZM46.0824 71.6297C45.7961 71.664 45.3278 71.664 45.0415 71.6297C44.7551 71.5956 44.9894 71.5675 45.562 71.5675C46.1345 71.5675 46.3688 71.5956 46.0824 71.6297ZM40.2771 73.6792C41.7969 73.8479 42.9581 74.114 44.3232 74.6065L45.2417 74.9379V76.225V77.5119L43.8218 76.9077C41.8869 76.0844 40.1876 75.6874 38.61 75.6902C36.4159 75.694 34.6401 76.2469 31.469 77.9133C30.4535 78.447 29.1558 78.9741 28.193 79.2441C27.3162 79.4899 26.5792 79.6725 26.5555 79.6495C26.5116 79.6073 26.7658 77.8839 26.9024 77.2975C27.0691 76.5814 33.1409 74.227 35.793 73.85C38.2629 73.4992 38.5533 73.488 40.2771 73.6792ZM55.8729 73.9344C57.7389 74.2726 59.7936 74.9697 62.1548 76.0656L64.2544 77.04L64.4369 78.2236C64.5373 78.8744 64.6195 79.4688 64.6195 79.5443C64.6195 79.8929 61.6344 78.8555 59.1548 77.6455C57.6073 76.8903 55.9773 76.2159 55.2283 76.021C52.7892 75.3864 50.4077 75.6392 47.4929 76.8424C46.7675 77.1417 46.1446 77.3867 46.1082 77.3867C46.072 77.3867 46.0424 76.8316 46.0424 76.1532V74.9198L46.6429 74.6763C49.291 73.6029 52.5846 73.3381 55.8729 73.9344ZM41.8528 76.6013C43.3277 77.0816 45.0815 77.7976 45.0815 77.9193C45.0815 77.9598 44.5055 77.7548 43.8013 77.4643C39.6053 75.7323 36.9545 75.8301 32.7101 77.8733C31.8512 78.2867 31.1487 78.5903 31.1487 78.5479C31.1487 78.4442 33.8355 77.1484 34.8788 76.7487C37.1742 75.8695 39.457 75.8213 41.8528 76.6013ZM55.345 76.4498C56.411 76.7691 58.8542 77.7996 58.8542 77.93C58.8542 77.9687 58.4399 77.8191 57.9333 77.5973C55.3016 76.4451 53.4391 76.0817 51.4096 76.3246C50.2094 76.4684 47.9552 77.1507 46.7876 77.7236C46.4487 77.89 46.1415 77.997 46.1049 77.9618C46.0302 77.8897 47.8207 77.0917 48.925 76.7047C51.0957 75.9442 53.357 75.8545 55.345 76.4498ZM41.7399 77.1359C43.8815 77.8197 45.2417 78.4714 45.2417 78.8138C45.2417 79.0455 45.1746 79.0906 44.9614 79.0018C39.7492 76.8304 36.1083 77.0707 31.0936 79.9167C30.2344 80.4044 29.2376 80.9034 28.8786 81.0255C28.1538 81.2722 25.8638 81.3304 25.8638 81.1023C25.8638 80.8808 26.0028 80.8275 28.0807 80.2507C29.4013 79.8842 30.481 79.4598 31.494 78.9091C32.3088 78.4662 33.5193 77.8847 34.1841 77.6171C35.243 77.1908 35.796 77.0208 37.1542 76.7044C37.9711 76.5139 40.5532 76.757 41.7399 77.1359ZM54.945 76.9209C55.7451 77.1142 57.2737 77.7357 59.0944 78.6075C60.9624 79.5018 62.4562 80.1066 63.3383 80.3256C65.6126 80.8899 65.9253 81.2476 64.1447 81.2476C62.8172 81.2476 61.9 80.9718 60.5215 80.158C55.6431 77.2787 52.1238 76.8421 47.4437 78.5355C46.1391 79.0075 46.0424 79.0222 46.0424 78.7466C46.0424 78.5352 46.3054 78.3378 46.9632 78.0552C50.2696 76.6353 52.4706 76.3224 54.945 76.9209ZM41.6798 78.3235C42.3342 78.4849 43.481 78.8537 44.2282 79.1431L45.5871 79.6693L46.9064 79.1562C49.9639 77.9673 52.8772 77.6381 55.1708 78.2223C56.2396 78.4946 58.8383 79.6611 60.8972 80.7929C61.7135 81.2417 62.401 81.4874 63.2073 81.6184L64.3551 81.8048L62.1252 82.2905C59.4844 82.8656 55.9533 83.4506 52.8487 83.8273C49.59 84.2227 39.8641 84.2224 36.6738 83.8265C32.9968 83.3705 29.3494 82.7242 26.6734 82.0542L25.6236 81.7914L27.145 81.6885C28.7995 81.5765 29.3357 81.4037 30.908 80.4757C33.1779 79.1358 35.3477 78.2651 37.0612 78.0061C38.2482 77.8268 40.2135 77.9619 41.6798 78.3235ZM63.1782 79.7014C63.9269 79.8881 64.6064 80.1024 64.6882 80.1777C64.77 80.253 64.1575 80.14 63.3269 79.9267C61.9782 79.5804 59.5175 78.5348 59.0944 78.1283C59.0063 78.0435 59.5829 78.2866 60.3756 78.668C61.1683 79.0496 62.4295 79.5147 63.1782 79.7014ZM30.9885 78.6963C30.9885 78.9625 26.5736 80.4391 26.3684 80.2414C26.28 80.156 26.4131 80.1123 28.2531 79.6223C29.0826 79.4013 30.0195 79.089 30.335 78.9283C30.9853 78.5965 30.9885 78.5954 30.9885 78.6963Z" fill="white"/>
</svg>
